<?xml version="1.0" standalone="no"?><!DOCTYPE svg PUBLIC "-//W3C//DTD SVG 1.1//EN" "http://www.w3.org/Graphics/SVG/1.1/DTD/svg11.dtd"><svg t="1529652604793" class="icon" style="" viewBox="0 0 1024 1024" version="1.1" xmlns="http://www.w3.org/2000/svg" p-id="3779" xmlns:xlink="http://www.w3.org/1999/xlink" width="200" height="200"><defs><style type="text/css"></style></defs><path d="M674.086074 430.070013l257.666454 0c14.145162 0 25.611308-11.467169 25.611308-25.611308s-11.466146-25.611308-25.611308-25.611308L674.086074 378.847397c-14.145162 0-25.611308 11.467169-25.611308 25.611308S659.940912 430.070013 674.086074 430.070013zM382.102023 533.218254c110.582561 0 200.548572-89.856517 200.548572-200.305025s-89.966011-200.305025-200.548572-200.305025-200.548572 89.856517-200.548572 200.305025S271.519462 533.218254 382.102023 533.218254zM382.102023 183.832865c82.338287 0 149.325957 66.877153 149.325957 149.081387s-66.98767 149.08241-149.325957 149.08241S232.777089 415.117462 232.777089 332.914252 299.763736 183.832865 382.102023 183.832865zM381.577067 539.220968c-83.965343 0-162.919557 32.354895-222.318388 91.105974C99.784122 689.151699 67.030138 767.385505 67.030138 850.616114c0 5.336542 0.137123 10.726296 0.409322 16.020882l1.246387 24.299429 625.78244 0 1.246387-24.299429c0.272199-5.294586 0.409322-10.68434 0.409322-16.020882 0-83.23061-32.753985-161.464415-92.227518-220.289172C544.49867 571.575864 465.543434 539.220968 381.577067 539.220968zM118.481973 839.71381c5.802146-138.424676 121.594359-249.270227 263.096117-249.270227s257.292947 110.844527 263.095094 249.270227L118.481973 839.71381zM931.752528 611.946316 674.086074 611.946316c-14.145162 0-25.611308 11.466146-25.611308 25.611308s11.466146 25.611308 25.611308 25.611308l257.666454 0c14.145162 0 25.611308-11.466146 25.611308-25.611308S945.897689 611.946316 931.752528 611.946316zM931.752528 495.395834l-386.809743 0c-14.145162 0-25.611308 11.467169-25.611308 25.611308s11.466146 25.612331 25.611308 25.612331l386.809743 0c14.145162 0 25.611308-11.467169 25.611308-25.612331S945.897689 495.395834 931.752528 495.395834z" p-id="3780" fill="#cdcdcd"></path></svg>