<?xml version="1.0" standalone="no"?><!DOCTYPE svg PUBLIC "-//W3C//DTD SVG 1.1//EN" "http://www.w3.org/Graphics/SVG/1.1/DTD/svg11.dtd"><svg t="1529652636891" class="icon" style="" viewBox="0 0 1024 1024" version="1.1" xmlns="http://www.w3.org/2000/svg" p-id="5695" xmlns:xlink="http://www.w3.org/1999/xlink" width="200" height="200"><defs><style type="text/css"></style></defs><path d="M512 128c-211.7 0-384 172.3-384 384s172.3 384 384 384 384-172.3 384-384-172.3-384-384-384z m0 717.4c-183.8 0-333.4-149.6-333.4-333.4 0-183.8 149.6-333.4 333.4-333.4S845.4 328.2 845.4 512c0 183.8-149.6 333.4-333.4 333.4z" p-id="5696" fill="#cdcdcd"></path><path d="M681 289L452.1 441c-4.4 2.9-8.1 6.7-11.1 11.1L289 681c-10.4 15.6-8.4 35.8 4.9 49.1 7.6 7.6 17.5 11.5 27.5 11.5 7.4 0 14.9-2.2 21.6-6.6l228.9-152c4.4-2.9 8.1-6.7 11.1-11.1L735 343c10.4-15.6 8.4-35.8-4.9-49.1-13.3-13.3-33.5-15.3-49.1-4.9zM542.1 542l-179 118.9 118.9-179 178.9-118.8L542.1 542z" p-id="5697" fill="#cdcdcd"></path><path d="M488.6 521.7c0.6 1.5 1.4 3 2.3 4.4 0.9 1.4 2 2.7 3.1 3.8 1.2 1.2 2.5 2.2 3.8 3.1 1.4 0.9 2.8 1.7 4.4 2.3 1.5 0.6 3.1 1.1 4.8 1.4 1.6 0.4 3.3 0.5 5 0.5 1.6 0 3.3-0.2 4.9-0.5 1.6-0.3 3.2-0.8 4.8-1.4 1.5-0.7 3-1.4 4.4-2.3 1.4-0.9 2.7-2 3.8-3.1 1.2-1.2 2.2-2.5 3.1-3.8 0.9-1.4 1.7-2.9 2.3-4.4 0.7-1.5 1.1-3.1 1.5-4.7 0.3-1.6 0.5-3.3 0.5-5 0-1.7-0.2-3.3-0.5-5-0.4-1.6-0.8-3.2-1.5-4.7-0.6-1.5-1.4-3-2.3-4.4-0.9-1.4-2-2.7-3.1-3.8-1.2-1.2-2.4-2.2-3.8-3.1-1.4-0.9-2.8-1.7-4.4-2.3-1.5-0.6-3.1-1.1-4.8-1.4-3.2-0.7-6.6-0.7-9.9 0-1.6 0.3-3.2 0.8-4.8 1.4-1.5 0.7-3 1.4-4.4 2.3-1.4 0.9-2.7 2-3.8 3.1-1.2 1.2-2.2 2.5-3.1 3.8-0.9 1.4-1.7 2.9-2.3 4.4-0.7 1.5-1.1 3.1-1.5 4.7-0.3 1.7-0.5 3.3-0.5 5 0 1.7 0.2 3.3 0.5 5 0.4 1.6 0.9 3.1 1.5 4.7z" p-id="5698" fill="#cdcdcd"></path></svg>