<?xml version="1.0" standalone="no"?><!DOCTYPE svg PUBLIC "-//W3C//DTD SVG 1.1//EN" "http://www.w3.org/Graphics/SVG/1.1/DTD/svg11.dtd"><svg t="1529652621360" class="icon" style="" viewBox="0 0 1024 1024" version="1.1" xmlns="http://www.w3.org/2000/svg" p-id="4873" xmlns:xlink="http://www.w3.org/1999/xlink" width="200" height="200"><defs><style type="text/css"></style></defs><path d="M958.576965 473.780537c0-214.58117-200.676485-389.164371-447.300442-389.164371-246.6434 0-447.300442 174.583201-447.300442 389.164371 0 128.633682 72.203462 247.613494 193.816241 320.504618l0 125.391848c0 7.624654 4.207835 14.626115 10.926864 18.254759 3.066849 1.676176 6.440689 2.476401 9.80532 2.476401 4.01136 0 7.990998-1.160429 11.456936-3.432169l57.085136-37.70781c0.931209-0.603751 1.828648-1.316995 2.65241-2.061962l65.577554-43.680848c32.462343 6.215562 64.719001 9.366322 96.040357 9.366322C757.901503 862.860996 958.576965 688.304402 958.576965 473.780537L958.576965 473.780537 958.576965 473.780537zM511.252986 821.397652c-31.239492 0-63.58927-3.432169-96.17748-10.203386-5.3918-1.160429-11.067057-0.024559-15.70468 3.046383L323.819107 864.553545c-0.892323 0.580215-1.750877 1.261737-2.521426 1.959631l-22.052249 14.563694L299.245432 782.310426c0-7.493671-4.051269-14.407128-10.541077-18.059308C173.945681 699.502441 105.439424 590.888721 105.439424 473.755977c0-191.749162 182.051289-347.701027 405.838122-347.701027 223.768413 0 405.834029 155.980517 405.834029 347.701027C917.110551 665.446811 735.044936 821.397652 511.252986 821.397652L511.252986 821.397652 511.252986 821.397652zM367.42116 489.831095c0 25.39232-20.574594 45.977147-45.977147 45.977147-25.391297 0-45.977147-20.584827-45.977147-45.977147 0-25.397437 20.585851-45.977147 45.977147-45.977147C346.846566 443.853947 367.42116 464.433658 367.42116 489.831095L367.42116 489.831095zM569.730842 489.831095c0 25.39232-20.589944 45.977147-45.977147 45.977147-25.40153 0-45.977147-20.584827-45.977147-45.977147 0-25.397437 20.575618-45.977147 45.977147-45.977147C549.140898 443.853947 569.730842 464.433658 569.730842 489.831095L569.730842 489.831095zM757.316172 489.831095c0 25.39232-20.584827 45.977147-45.977147 45.977147-25.40153 0-45.977147-20.584827-45.977147-45.977147 0-25.397437 20.575618-45.977147 45.977147-45.977147C736.731344 443.853947 757.316172 464.433658 757.316172 489.831095L757.316172 489.831095zM757.316172 489.831095" p-id="4874" fill="#cdcdcd"></path></svg>