<?xml version="1.0" standalone="no"?><!DOCTYPE svg PUBLIC "-//W3C//DTD SVG 1.1//EN" "http://www.w3.org/Graphics/SVG/1.1/DTD/svg11.dtd"><svg t="1529652672031" class="icon" style="" viewBox="0 0 1024 1024" version="1.1" xmlns="http://www.w3.org/2000/svg" p-id="6544" xmlns:xlink="http://www.w3.org/1999/xlink" width="200" height="200"><defs><style type="text/css"></style></defs><path d="M649.798512 613.341283c-3.117399-10.513231-12.069373-46.909316 0.725006-82.956323 65.341355-47.644551 112.06782-124.068145 128.021795-196.823233C807.475239 201.652772 746.876475-5.904902 511.79797 0.129146 269.514156 6.343486 219.346787 200.985306 245.050627 333.561727c13.864627 71.503269 56.898292 143.367123 117.4165 190.502763 23.555673 43.606509 7.784548 77.694593-1.217295 91.630825C178.131392 651.439278 0.531696 745.513643 0.531696 855.944765c0 194.217302 290.286394 166.715651 511.266274 166.715651s511.266274 15.39136 511.266274-166.715651C1023.065523 742.993383 837.264432 647.154452 649.798512 613.341283zM511.79797 978.202312c-184.151606 0-466.809449 26.921134-466.809449-122.257547 0-95.696998 190.295619-176.525613 360.333256-202.458335 9.357313-24.239762 17.558707-52.122456 17.558707-75.405772 0-33.412946-11.144894-61.227871-22.274445-80.676453-54.331999-37.759148-93.887679-100.210706-111.099866-163.842478-28.850648-106.656486 9.861109-288.977035 222.290518-288.977035 209.176471 0 252.936421 182.821788 222.290518 288.977035-18.387286 63.688033-57.15914 125.543731-110.431122 163.210815-11.346924 19.677464-22.941911 47.930973-22.941911 81.308116 0 23.844652 8.000643 51.458826 17.213466 75.354625 170.124587 25.875182 360.678498 106.74855 360.678498 202.51076C978.607419 1001.552119 695.950854 978.202312 511.79797 978.202312z" p-id="6545" fill="#cdcdcd"></path></svg>