<?xml version="1.0" standalone="no"?><!DOCTYPE svg PUBLIC "-//W3C//DTD SVG 1.1//EN" "http://www.w3.org/Graphics/SVG/1.1/DTD/svg11.dtd"><svg t="1529652852524" class="icon" style="" viewBox="0 0 1024 1024" version="1.1" xmlns="http://www.w3.org/2000/svg" p-id="2716" xmlns:xlink="http://www.w3.org/1999/xlink" width="200" height="200"><defs><style type="text/css"></style></defs><path d="M1002.624 490.645333 533.376 490.645333 533.376 21.354667C533.376 9.557333 523.84 0 512 0c-11.818667 0-21.376 9.557333-21.376 21.354667l0 469.290667L21.354667 490.645333C9.557333 490.645333 0 500.202667 0 512s9.557333 21.376 21.354667 21.376l469.269333 0 0 469.248C490.624 1014.442667 500.181333 1024 512 1024c11.84 0 21.376-9.557333 21.376-21.376L533.376 533.376l469.248 0C1014.464 533.376 1024 523.797333 1024 512S1014.464 490.645333 1002.624 490.645333z" p-id="2717" fill="#cdcdcd"></path></svg>