<?xml version="1.0" standalone="no"?><!DOCTYPE svg PUBLIC "-//W3C//DTD SVG 1.1//EN" "http://www.w3.org/Graphics/SVG/1.1/DTD/svg11.dtd"><svg t="1529653336008" class="icon" style="" viewBox="0 0 1024 1024" version="1.1" xmlns="http://www.w3.org/2000/svg" p-id="1881" xmlns:xlink="http://www.w3.org/1999/xlink" width="200" height="200"><defs><style type="text/css"></style></defs><path d="M945.792 900.992l-220.736-217.728c58.24-64.384 91.968-150.144 91.968-245.248A373.568 373.568 0 0 0 442.944 64a373.568 373.568 0 0 0-374.016 374.016 373.632 373.632 0 0 0 374.016 374.016c95.104 0 180.864-33.664 245.248-91.968l220.8 217.664c9.216 9.152 27.648 9.152 36.8 0 12.288-12.16 12.288-27.52 0-36.736zM118.016 438.016a325.12 325.12 0 0 1 324.992-324.992A323.2 323.2 0 0 1 768 438.016a325.952 325.952 0 0 1-88.96 223.872c-3.072 0-3.072 3.072-6.144 3.072-3.008 3.008-3.008 3.008-3.008 6.08a326.144 326.144 0 0 1-223.808 88.96c-180.928 3.008-328.064-144.064-328.064-321.984z" p-id="1882" fill="#cdcdcd"></path></svg>